<svg xmlns="http://www.w3.org/2000/svg" width="128" height="128" viewBox="0 0 128 128" fill="none">
  <defs>
    <linearGradient id="pc-bg" x1="0" y1="0" x2="1" y2="1">
      <stop offset="0" stop-color="#ecfdf5"/>
      <stop offset="1" stop-color="#bbf7d0"/>
    </linearGradient>
    <linearGradient id="pc-stroke" x1="0" y1="0" x2="1" y2="1">
      <stop offset="0" stop-color="#22c55e"/>
      <stop offset="1" stop-color="#15803d"/>
    </linearGradient>
  </defs>
  <circle cx="64" cy="64" r="62" fill="url(#pc-bg)" stroke="url(#pc-stroke)" stroke-width="3"/>
  <path d="M64 36c10 0 18 8 18 18 0 7-4 13-10 16 12 4 20 15 20 28v4H36v-4c0-13 8-24 20-28-6-3-10-9-10-16 0-10 8-18 18-18z" fill="#f8fafc" stroke="#166534" stroke-width="2.5" stroke-linejoin="round"/>
  <path d="M48 88h32" stroke="#16a34a" stroke-width="3" stroke-linecap="round"/>
  <path d="M56 52l8 8 16-18" stroke="#22c55e" stroke-width="3" stroke-linecap="round" stroke-linejoin="round"/>
</svg>
